<?xml version="1.0" encoding="utf-8" standalone="no"?>
<!DOCTYPE svg PUBLIC "-//W3C//DTD SVG 1.1//EN"
  "http://www.w3.org/Graphics/SVG/1.1/DTD/svg11.dtd">
<svg xmlns:xlink="http://www.w3.org/1999/xlink" width="720pt" height="720pt" viewBox="0 0 720 720" xmlns="http://www.w3.org/2000/svg" version="1.1">
 <metadata>
  <rdf:RDF xmlns:dc="http://purl.org/dc/elements/1.1/" xmlns:cc="http://creativecommons.org/ns#" xmlns:rdf="http://www.w3.org/1999/02/22-rdf-syntax-ns#">
   <cc:Work>
    <dc:type rdf:resource="http://purl.org/dc/dcmitype/StillImage"/>
    <dc:date>2022-08-12T10:35:52.611400</dc:date>
    <dc:format>image/svg+xml</dc:format>
    <dc:creator>
     <cc:Agent>
      <dc:title>Matplotlib v3.5.2, https://matplotlib.org/</dc:title>
     </cc:Agent>
    </dc:creator>
   </cc:Work>
  </rdf:RDF>
 </metadata>
 <defs>
  <style type="text/css">*{stroke-linejoin: round; stroke-linecap: butt}</style>
 </defs>
 <g id="figure_1">
  <g id="patch_1">
   <path d="M 0 720 
L 720 720 
L 720 0 
L 0 0 
z
" style="fill: #ffffff"/>
  </g>
  <g id="axes_1">
   <g id="patch_2">
    <path d="M 90 254.4 
L 648 254.4 
L 648 86.4 
L 90 86.4 
z
" style="fill: #ffffff"/>
   </g>
   <g id="matplotlib.axis_1">
    <g id="xtick_1">
     <g id="line2d_1">
      <path d="M 90 254.4 
L 90 86.4 
" clip-path="url(#pe3ec73b60f)" style="fill: none; stroke-dasharray: 2.96,1.28; stroke-dashoffset: 0; stroke: #808080; stroke-opacity: 0.5; stroke-width: 0.8"/>
     </g>
     <g id="line2d_2">
      <defs>
       <path id="m04ebff68f6" d="M 0 0 
L 0 -3.5 
" style="stroke: #000000; stroke-width: 0.8"/>
      </defs>
      <g>
       <use xlink:href="#m04ebff68f6" x="90" y="254.4" style="stroke: #000000; stroke-width: 0.8"/>
      </g>
     </g>
     <g id="text_1">
      <!-- 0 -->
      <g transform="translate(86.81875 265.498437)scale(0.1 -0.1)">
       <defs>
        <path id="DejaVuSans-30" d="M 2034 4250 
Q 1547 4250 1301 3770 
Q 1056 3291 1056 2328 
Q 1056 1369 1301 889 
Q 1547 409 2034 409 
Q 2525 409 2770 889 
Q 3016 1369 3016 2328 
Q 3016 3291 2770 3770 
Q 2525 4250 2034 4250 
z
M 2034 4750 
Q 2819 4750 3233 4129 
Q 3647 3509 3647 2328 
Q 3647 1150 3233 529 
Q 2819 -91 2034 -91 
Q 1250 -91 836 529 
Q 422 1150 422 2328 
Q 422 3509 836 4129 
Q 1250 4750 2034 4750 
z
" transform="scale(0.015625)"/>
       </defs>
       <use xlink:href="#DejaVuSans-30"/>
      </g>
     </g>
    </g>
    <g id="xtick_2">
     <g id="line2d_3">
      <path d="M 203.553114 254.4 
L 203.553114 86.4 
" clip-path="url(#pe3ec73b60f)" style="fill: none; stroke-dasharray: 2.96,1.28; stroke-dashoffset: 0; stroke: #808080; stroke-opacity: 0.5; stroke-width: 0.8"/>
     </g>
     <g id="line2d_4">
      <g>
       <use xlink:href="#m04ebff68f6" x="203.553114" y="254.4" style="stroke: #000000; stroke-width: 0.8"/>
      </g>
     </g>
     <g id="text_2">
      <!-- 100 -->
      <g transform="translate(194.009364 265.498437)scale(0.1 -0.1)">
       <defs>
        <path id="DejaVuSans-31" d="M 794 531 
L 1825 531 
L 1825 4091 
L 703 3866 
L 703 4441 
L 1819 4666 
L 2450 4666 
L 2450 531 
L 3481 531 
L 3481 0 
L 794 0 
L 794 531 
z
" transform="scale(0.015625)"/>
       </defs>
       <use xlink:href="#DejaVuSans-31"/>
       <use xlink:href="#DejaVuSans-30" x="63.623047"/>
       <use xlink:href="#DejaVuSans-30" x="127.246094"/>
      </g>
     </g>
    </g>
    <g id="xtick_3">
     <g id="line2d_5">
      <path d="M 317.106227 254.4 
L 317.106227 86.4 
" clip-path="url(#pe3ec73b60f)" style="fill: none; stroke-dasharray: 2.96,1.28; stroke-dashoffset: 0; stroke: #808080; stroke-opacity: 0.5; stroke-width: 0.8"/>
     </g>
     <g id="line2d_6">
      <g>
       <use xlink:href="#m04ebff68f6" x="317.106227" y="254.4" style="stroke: #000000; stroke-width: 0.8"/>
      </g>
     </g>
     <g id="text_3">
      <!-- 200 -->
      <g transform="translate(307.562477 265.498437)scale(0.1 -0.1)">
       <defs>
        <path id="DejaVuSans-32" d="M 1228 531 
L 3431 531 
L 3431 0 
L 469 0 
L 469 531 
Q 828 903 1448 1529 
Q 2069 2156 2228 2338 
Q 2531 2678 2651 2914 
Q 2772 3150 2772 3378 
Q 2772 3750 2511 3984 
Q 2250 4219 1831 4219 
Q 1534 4219 1204 4116 
Q 875 4013 500 3803 
L 500 4441 
Q 881 4594 1212 4672 
Q 1544 4750 1819 4750 
Q 2544 4750 2975 4387 
Q 3406 4025 3406 3419 
Q 3406 3131 3298 2873 
Q 3191 2616 2906 2266 
Q 2828 2175 2409 1742 
Q 1991 1309 1228 531 
z
" transform="scale(0.015625)"/>
       </defs>
       <use xlink:href="#DejaVuSans-32"/>
       <use xlink:href="#DejaVuSans-30" x="63.623047"/>
       <use xlink:href="#DejaVuSans-30" x="127.246094"/>
      </g>
     </g>
    </g>
    <g id="xtick_4">
     <g id="line2d_7">
      <path d="M 430.659341 254.4 
L 430.659341 86.4 
" clip-path="url(#pe3ec73b60f)" style="fill: none; stroke-dasharray: 2.96,1.28; stroke-dashoffset: 0; stroke: #808080; stroke-opacity: 0.5; stroke-width: 0.8"/>
     </g>
     <g id="line2d_8">
      <g>
       <use xlink:href="#m04ebff68f6" x="430.659341" y="254.4" style="stroke: #000000; stroke-width: 0.8"/>
      </g>
     </g>
     <g id="text_4">
      <!-- 300 -->
      <g transform="translate(421.115591 265.498437)scale(0.1 -0.1)">
       <defs>
        <path id="DejaVuSans-33" d="M 2597 2516 
Q 3050 2419 3304 2112 
Q 3559 1806 3559 1356 
Q 3559 666 3084 287 
Q 2609 -91 1734 -91 
Q 1441 -91 1130 -33 
Q 819 25 488 141 
L 488 750 
Q 750 597 1062 519 
Q 1375 441 1716 441 
Q 2309 441 2620 675 
Q 2931 909 2931 1356 
Q 2931 1769 2642 2001 
Q 2353 2234 1838 2234 
L 1294 2234 
L 1294 2753 
L 1863 2753 
Q 2328 2753 2575 2939 
Q 2822 3125 2822 3475 
Q 2822 3834 2567 4026 
Q 2313 4219 1838 4219 
Q 1578 4219 1281 4162 
Q 984 4106 628 3988 
L 628 4550 
Q 988 4650 1302 4700 
Q 1616 4750 1894 4750 
Q 2613 4750 3031 4423 
Q 3450 4097 3450 3541 
Q 3450 3153 3228 2886 
Q 3006 2619 2597 2516 
z
" transform="scale(0.015625)"/>
       </defs>
       <use xlink:href="#DejaVuSans-33"/>
       <use xlink:href="#DejaVuSans-30" x="63.623047"/>
       <use xlink:href="#DejaVuSans-30" x="127.246094"/>
      </g>
     </g>
    </g>
    <g id="xtick_5">
     <g id="line2d_9">
      <path d="M 544.212454 254.4 
L 544.212454 86.4 
" clip-path="url(#pe3ec73b60f)" style="fill: none; stroke-dasharray: 2.96,1.28; stroke-dashoffset: 0; stroke: #808080; stroke-opacity: 0.5; stroke-width: 0.8"/>
     </g>
     <g id="line2d_10">
      <g>
       <use xlink:href="#m04ebff68f6" x="544.212454" y="254.4" style="stroke: #000000; stroke-width: 0.8"/>
      </g>
     </g>
     <g id="text_5">
      <!-- 400 -->
      <g transform="translate(534.668704 265.498437)scale(0.1 -0.1)">
       <defs>
        <path id="DejaVuSans-34" d="M 2419 4116 
L 825 1625 
L 2419 1625 
L 2419 4116 
z
M 2253 4666 
L 3047 4666 
L 3047 1625 
L 3713 1625 
L 3713 1100 
L 3047 1100 
L 3047 0 
L 2419 0 
L 2419 1100 
L 313 1100 
L 313 1709 
L 2253 4666 
z
" transform="scale(0.015625)"/>
       </defs>
       <use xlink:href="#DejaVuSans-34"/>
       <use xlink:href="#DejaVuSans-30" x="63.623047"/>
       <use xlink:href="#DejaVuSans-30" x="127.246094"/>
      </g>
     </g>
    </g>
   </g>
   <g id="matplotlib.axis_2">
    <g id="ytick_1">
     <g id="line2d_11">
      <path d="M 90 226.43253 
L 648 226.43253 
" clip-path="url(#pe3ec73b60f)" style="fill: none; stroke-dasharray: 2.96,1.28; stroke-dashoffset: 0; stroke: #808080; stroke-opacity: 0.5; stroke-width: 0.8"/>
     </g>
     <g id="line2d_12">
      <defs>
       <path id="m8d0196ec0a" d="M 0 0 
L 3.5 0 
" style="stroke: #000000; stroke-width: 0.8"/>
      </defs>
      <g>
       <use xlink:href="#m8d0196ec0a" x="90" y="226.43253" style="stroke: #000000; stroke-width: 0.8"/>
      </g>
     </g>
     <g id="text_6">
      <!-- 2 -->
      <g transform="translate(80.1375 230.231749)scale(0.1 -0.1)">
       <use xlink:href="#DejaVuSans-32"/>
      </g>
     </g>
    </g>
    <g id="ytick_2">
     <g id="line2d_13">
      <path d="M 90 185.770317 
L 648 185.770317 
" clip-path="url(#pe3ec73b60f)" style="fill: none; stroke-dasharray: 2.96,1.28; stroke-dashoffset: 0; stroke: #808080; stroke-opacity: 0.5; stroke-width: 0.8"/>
     </g>
     <g id="line2d_14">
      <g>
       <use xlink:href="#m8d0196ec0a" x="90" y="185.770317" style="stroke: #000000; stroke-width: 0.8"/>
      </g>
     </g>
     <g id="text_7">
      <!-- 3 -->
      <g transform="translate(80.1375 189.569535)scale(0.1 -0.1)">
       <use xlink:href="#DejaVuSans-33"/>
      </g>
     </g>
    </g>
    <g id="ytick_3">
     <g id="line2d_15">
      <path d="M 90 145.108103 
L 648 145.108103 
" clip-path="url(#pe3ec73b60f)" style="fill: none; stroke-dasharray: 2.96,1.28; stroke-dashoffset: 0; stroke: #808080; stroke-opacity: 0.5; stroke-width: 0.8"/>
     </g>
     <g id="line2d_16">
      <g>
       <use xlink:href="#m8d0196ec0a" x="90" y="145.108103" style="stroke: #000000; stroke-width: 0.8"/>
      </g>
     </g>
     <g id="text_8">
      <!-- 4 -->
      <g transform="translate(80.1375 148.907322)scale(0.1 -0.1)">
       <use xlink:href="#DejaVuSans-34"/>
      </g>
     </g>
    </g>
    <g id="ytick_4">
     <g id="line2d_17">
      <path d="M 90 104.44589 
L 648 104.44589 
" clip-path="url(#pe3ec73b60f)" style="fill: none; stroke-dasharray: 2.96,1.28; stroke-dashoffset: 0; stroke: #808080; stroke-opacity: 0.5; stroke-width: 0.8"/>
     </g>
     <g id="line2d_18">
      <g>
       <use xlink:href="#m8d0196ec0a" x="90" y="104.44589" style="stroke: #000000; stroke-width: 0.8"/>
      </g>
     </g>
     <g id="text_9">
      <!-- 5 -->
      <g transform="translate(80.1375 108.245109)scale(0.1 -0.1)">
       <defs>
        <path id="DejaVuSans-35" d="M 691 4666 
L 3169 4666 
L 3169 4134 
L 1269 4134 
L 1269 2991 
Q 1406 3038 1543 3061 
Q 1681 3084 1819 3084 
Q 2600 3084 3056 2656 
Q 3513 2228 3513 1497 
Q 3513 744 3044 326 
Q 2575 -91 1722 -91 
Q 1428 -91 1123 -41 
Q 819 9 494 109 
L 494 744 
Q 775 591 1075 516 
Q 1375 441 1709 441 
Q 2250 441 2565 725 
Q 2881 1009 2881 1497 
Q 2881 1984 2565 2268 
Q 2250 2553 1709 2553 
Q 1456 2553 1204 2497 
Q 953 2441 691 2322 
L 691 4666 
z
" transform="scale(0.015625)"/>
       </defs>
       <use xlink:href="#DejaVuSans-35"/>
      </g>
     </g>
    </g>
    <g id="text_10">
     <!-- Surcharge height (m) -->
     <g transform="translate(72.602031 261.136172)rotate(-90)scale(0.17 -0.17)">
      <defs>
       <path id="DejaVuSans-53" d="M 3425 4513 
L 3425 3897 
Q 3066 4069 2747 4153 
Q 2428 4238 2131 4238 
Q 1616 4238 1336 4038 
Q 1056 3838 1056 3469 
Q 1056 3159 1242 3001 
Q 1428 2844 1947 2747 
L 2328 2669 
Q 3034 2534 3370 2195 
Q 3706 1856 3706 1288 
Q 3706 609 3251 259 
Q 2797 -91 1919 -91 
Q 1588 -91 1214 -16 
Q 841 59 441 206 
L 441 856 
Q 825 641 1194 531 
Q 1563 422 1919 422 
Q 2459 422 2753 634 
Q 3047 847 3047 1241 
Q 3047 1584 2836 1778 
Q 2625 1972 2144 2069 
L 1759 2144 
Q 1053 2284 737 2584 
Q 422 2884 422 3419 
Q 422 4038 858 4394 
Q 1294 4750 2059 4750 
Q 2388 4750 2728 4690 
Q 3069 4631 3425 4513 
z
" transform="scale(0.015625)"/>
       <path id="DejaVuSans-75" d="M 544 1381 
L 544 3500 
L 1119 3500 
L 1119 1403 
Q 1119 906 1312 657 
Q 1506 409 1894 409 
Q 2359 409 2629 706 
Q 2900 1003 2900 1516 
L 2900 3500 
L 3475 3500 
L 3475 0 
L 2900 0 
L 2900 538 
Q 2691 219 2414 64 
Q 2138 -91 1772 -91 
Q 1169 -91 856 284 
Q 544 659 544 1381 
z
M 1991 3584 
L 1991 3584 
z
" transform="scale(0.015625)"/>
       <path id="DejaVuSans-72" d="M 2631 2963 
Q 2534 3019 2420 3045 
Q 2306 3072 2169 3072 
Q 1681 3072 1420 2755 
Q 1159 2438 1159 1844 
L 1159 0 
L 581 0 
L 581 3500 
L 1159 3500 
L 1159 2956 
Q 1341 3275 1631 3429 
Q 1922 3584 2338 3584 
Q 2397 3584 2469 3576 
Q 2541 3569 2628 3553 
L 2631 2963 
z
" transform="scale(0.015625)"/>
       <path id="DejaVuSans-63" d="M 3122 3366 
L 3122 2828 
Q 2878 2963 2633 3030 
Q 2388 3097 2138 3097 
Q 1578 3097 1268 2742 
Q 959 2388 959 1747 
Q 959 1106 1268 751 
Q 1578 397 2138 397 
Q 2388 397 2633 464 
Q 2878 531 3122 666 
L 3122 134 
Q 2881 22 2623 -34 
Q 2366 -91 2075 -91 
Q 1284 -91 818 406 
Q 353 903 353 1747 
Q 353 2603 823 3093 
Q 1294 3584 2113 3584 
Q 2378 3584 2631 3529 
Q 2884 3475 3122 3366 
z
" transform="scale(0.015625)"/>
       <path id="DejaVuSans-68" d="M 3513 2113 
L 3513 0 
L 2938 0 
L 2938 2094 
Q 2938 2591 2744 2837 
Q 2550 3084 2163 3084 
Q 1697 3084 1428 2787 
Q 1159 2491 1159 1978 
L 1159 0 
L 581 0 
L 581 4863 
L 1159 4863 
L 1159 2956 
Q 1366 3272 1645 3428 
Q 1925 3584 2291 3584 
Q 2894 3584 3203 3211 
Q 3513 2838 3513 2113 
z
" transform="scale(0.015625)"/>
       <path id="DejaVuSans-61" d="M 2194 1759 
Q 1497 1759 1228 1600 
Q 959 1441 959 1056 
Q 959 750 1161 570 
Q 1363 391 1709 391 
Q 2188 391 2477 730 
Q 2766 1069 2766 1631 
L 2766 1759 
L 2194 1759 
z
M 3341 1997 
L 3341 0 
L 2766 0 
L 2766 531 
Q 2569 213 2275 61 
Q 1981 -91 1556 -91 
Q 1019 -91 701 211 
Q 384 513 384 1019 
Q 384 1609 779 1909 
Q 1175 2209 1959 2209 
L 2766 2209 
L 2766 2266 
Q 2766 2663 2505 2880 
Q 2244 3097 1772 3097 
Q 1472 3097 1187 3025 
Q 903 2953 641 2809 
L 641 3341 
Q 956 3463 1253 3523 
Q 1550 3584 1831 3584 
Q 2591 3584 2966 3190 
Q 3341 2797 3341 1997 
z
" transform="scale(0.015625)"/>
       <path id="DejaVuSans-67" d="M 2906 1791 
Q 2906 2416 2648 2759 
Q 2391 3103 1925 3103 
Q 1463 3103 1205 2759 
Q 947 2416 947 1791 
Q 947 1169 1205 825 
Q 1463 481 1925 481 
Q 2391 481 2648 825 
Q 2906 1169 2906 1791 
z
M 3481 434 
Q 3481 -459 3084 -895 
Q 2688 -1331 1869 -1331 
Q 1566 -1331 1297 -1286 
Q 1028 -1241 775 -1147 
L 775 -588 
Q 1028 -725 1275 -790 
Q 1522 -856 1778 -856 
Q 2344 -856 2625 -561 
Q 2906 -266 2906 331 
L 2906 616 
Q 2728 306 2450 153 
Q 2172 0 1784 0 
Q 1141 0 747 490 
Q 353 981 353 1791 
Q 353 2603 747 3093 
Q 1141 3584 1784 3584 
Q 2172 3584 2450 3431 
Q 2728 3278 2906 2969 
L 2906 3500 
L 3481 3500 
L 3481 434 
z
" transform="scale(0.015625)"/>
       <path id="DejaVuSans-65" d="M 3597 1894 
L 3597 1613 
L 953 1613 
Q 991 1019 1311 708 
Q 1631 397 2203 397 
Q 2534 397 2845 478 
Q 3156 559 3463 722 
L 3463 178 
Q 3153 47 2828 -22 
Q 2503 -91 2169 -91 
Q 1331 -91 842 396 
Q 353 884 353 1716 
Q 353 2575 817 3079 
Q 1281 3584 2069 3584 
Q 2775 3584 3186 3129 
Q 3597 2675 3597 1894 
z
M 3022 2063 
Q 3016 2534 2758 2815 
Q 2500 3097 2075 3097 
Q 1594 3097 1305 2825 
Q 1016 2553 972 2059 
L 3022 2063 
z
" transform="scale(0.015625)"/>
       <path id="DejaVuSans-20" transform="scale(0.015625)"/>
       <path id="DejaVuSans-69" d="M 603 3500 
L 1178 3500 
L 1178 0 
L 603 0 
L 603 3500 
z
M 603 4863 
L 1178 4863 
L 1178 4134 
L 603 4134 
L 603 4863 
z
" transform="scale(0.015625)"/>
       <path id="DejaVuSans-74" d="M 1172 4494 
L 1172 3500 
L 2356 3500 
L 2356 3053 
L 1172 3053 
L 1172 1153 
Q 1172 725 1289 603 
Q 1406 481 1766 481 
L 2356 481 
L 2356 0 
L 1766 0 
Q 1100 0 847 248 
Q 594 497 594 1153 
L 594 3053 
L 172 3053 
L 172 3500 
L 594 3500 
L 594 4494 
L 1172 4494 
z
" transform="scale(0.015625)"/>
       <path id="DejaVuSans-28" d="M 1984 4856 
Q 1566 4138 1362 3434 
Q 1159 2731 1159 2009 
Q 1159 1288 1364 580 
Q 1569 -128 1984 -844 
L 1484 -844 
Q 1016 -109 783 600 
Q 550 1309 550 2009 
Q 550 2706 781 3412 
Q 1013 4119 1484 4856 
L 1984 4856 
z
" transform="scale(0.015625)"/>
       <path id="DejaVuSans-6d" d="M 3328 2828 
Q 3544 3216 3844 3400 
Q 4144 3584 4550 3584 
Q 5097 3584 5394 3201 
Q 5691 2819 5691 2113 
L 5691 0 
L 5113 0 
L 5113 2094 
Q 5113 2597 4934 2840 
Q 4756 3084 4391 3084 
Q 3944 3084 3684 2787 
Q 3425 2491 3425 1978 
L 3425 0 
L 2847 0 
L 2847 2094 
Q 2847 2600 2669 2842 
Q 2491 3084 2119 3084 
Q 1678 3084 1418 2786 
Q 1159 2488 1159 1978 
L 1159 0 
L 581 0 
L 581 3500 
L 1159 3500 
L 1159 2956 
Q 1356 3278 1631 3431 
Q 1906 3584 2284 3584 
Q 2666 3584 2933 3390 
Q 3200 3197 3328 2828 
z
" transform="scale(0.015625)"/>
       <path id="DejaVuSans-29" d="M 513 4856 
L 1013 4856 
Q 1481 4119 1714 3412 
Q 1947 2706 1947 2009 
Q 1947 1309 1714 600 
Q 1481 -109 1013 -844 
L 513 -844 
Q 928 -128 1133 580 
Q 1338 1288 1338 2009 
Q 1338 2731 1133 3434 
Q 928 4138 513 4856 
z
" transform="scale(0.015625)"/>
      </defs>
      <use xlink:href="#DejaVuSans-53"/>
      <use xlink:href="#DejaVuSans-75" x="63.476562"/>
      <use xlink:href="#DejaVuSans-72" x="126.855469"/>
      <use xlink:href="#DejaVuSans-63" x="165.71875"/>
      <use xlink:href="#DejaVuSans-68" x="220.699219"/>
      <use xlink:href="#DejaVuSans-61" x="284.078125"/>
      <use xlink:href="#DejaVuSans-72" x="345.357422"/>
      <use xlink:href="#DejaVuSans-67" x="384.720703"/>
      <use xlink:href="#DejaVuSans-65" x="448.197266"/>
      <use xlink:href="#DejaVuSans-20" x="509.720703"/>
      <use xlink:href="#DejaVuSans-68" x="541.507812"/>
      <use xlink:href="#DejaVuSans-65" x="604.886719"/>
      <use xlink:href="#DejaVuSans-69" x="666.410156"/>
      <use xlink:href="#DejaVuSans-67" x="694.193359"/>
      <use xlink:href="#DejaVuSans-68" x="757.669922"/>
      <use xlink:href="#DejaVuSans-74" x="821.048828"/>
      <use xlink:href="#DejaVuSans-20" x="860.257812"/>
      <use xlink:href="#DejaVuSans-28" x="892.044922"/>
      <use xlink:href="#DejaVuSans-6d" x="931.058594"/>
      <use xlink:href="#DejaVuSans-29" x="1028.470703"/>
     </g>
    </g>
   </g>
   <g id="line2d_19">
    <path d="M 90 246.763636 
L 95.677656 246.763636 
L 97.948718 246.763636 
L 102.490842 246.763636 
L 105.897436 246.763636 
L 113.846154 246.763636 
L 121.794872 246.763636 
L 129.74359 246.763636 
L 137.692308 246.763636 
L 144.505495 246.763636 
L 150.18315 185.688992 
L 151.318681 185.688992 
L 152.454212 185.688992 
L 153.589744 185.688992 
L 156.996337 185.688992 
L 158.131868 185.688992 
L 159.267399 185.688992 
L 160.40293 185.688992 
L 166.080586 185.688992 
L 167.216117 185.688992 
L 168.351648 185.688992 
L 169.487179 185.688992 
L 174.029304 185.688992 
L 175.164835 185.688992 
L 176.300366 185.688992 
L 177.435897 185.688992 
L 180.842491 185.688992 
L 181.978022 185.688992 
L 183.113553 185.688992 
L 184.249084 185.688992 
L 193.333333 185.688992 
L 201.282051 185.688992 
L 209.230769 185.688992 
L 217.179487 185.688992 
L 220.586081 185.688992 
L 222.857143 185.688992 
L 223.992674 185.688992 
L 228.534799 141.245193 
L 230.805861 141.245193 
L 231.941392 141.245193 
L 233.076923 141.245193 
L 236.483516 141.245193 
L 237.619048 141.245193 
L 238.754579 141.245193 
L 239.89011 141.245193 
L 241.025641 141.245193 
L 244.432234 141.245193 
L 245.567766 141.245193 
L 246.703297 141.245193 
L 247.838828 141.245193 
L 248.974359 141.245193 
L 252.380952 141.245193 
L 256.923077 141.245193 
L 261.465201 141.245193 
L 264.871795 141.245193 
L 269.413919 141.245193 
L 272.820513 141.245193 
L 276.227106 141.245193 
L 280.769231 141.245193 
L 285.311355 141.245193 
L 288.717949 141.245193 
L 295.531136 141.245193 
L 308.021978 141.245193 
L 311.428571 141.245193 
L 315.970696 141.245193 
L 319.377289 141.245193 
L 327.326007 141.245193 
L 335.274725 141.245193 
L 343.223443 141.245193 
L 351.172161 141.245193 
L 359.120879 141.245193 
L 367.069597 141.245193 
L 375.018315 141.245193 
L 382.967033 141.245193 
L 392.051282 141.245193 
L 400 141.245193 
L 407.948718 141.245193 
L 414.761905 141.245193 
L 423.846154 141.245193 
L 430.659341 94.036364 
L 431.794872 94.036364 
L 435.201465 94.036364 
L 436.336996 94.036364 
L 437.472527 94.036364 
L 438.608059 94.036364 
L 439.74359 94.036364 
L 443.150183 94.036364 
L 444.285714 94.036364 
L 445.421245 94.036364 
L 446.556777 94.036364 
L 461.318681 94.036364 
L 463.589744 94.036364 
L 471.538462 94.036364 
L 479.487179 94.036364 
L 487.435897 94.036364 
L 495.384615 94.036364 
L 503.333333 94.036364 
L 511.282051 94.036364 
L 518.095238 94.036364 
L 527.179487 94.036364 
L 530.586081 94.036364 
L 531.721612 94.036364 
L 532.857143 94.036364 
L 533.992674 94.036364 
L 535.128205 94.036364 
L 538.534799 94.036364 
L 540.805861 94.036364 
L 541.941392 94.036364 
L 546.483516 94.036364 
L 548.754579 94.036364 
L 549.89011 94.036364 
L 551.025641 94.036364 
L 554.432234 94.036364 
L 556.703297 94.036364 
L 565.787546 94.036364 
L 566.923077 94.036364 
L 572.600733 94.036364 
L 573.736264 94.036364 
L 582.820513 94.036364 
L 589.6337 94.036364 
L 597.582418 94.036364 
L 606.666667 94.036364 
L 613.479853 94.036364 
L 621.428571 94.036364 
" clip-path="url(#pe3ec73b60f)" style="fill: none; stroke: #000000; stroke-width: 1.5; stroke-linecap: square"/>
   </g>
   <g id="patch_3">
    <path d="M 90 254.4 
L 90 86.4 
" style="fill: none; stroke: #000000; stroke-width: 0.8; stroke-linejoin: miter; stroke-linecap: square"/>
   </g>
   <g id="patch_4">
    <path d="M 648 254.4 
L 648 86.4 
" style="fill: none; stroke: #000000; stroke-width: 0.8; stroke-linejoin: miter; stroke-linecap: square"/>
   </g>
   <g id="patch_5">
    <path d="M 90 254.4 
L 648 254.4 
" style="fill: none; stroke: #000000; stroke-width: 0.8; stroke-linejoin: miter; stroke-linecap: square"/>
   </g>
   <g id="patch_6">
    <path d="M 90 86.4 
L 648 86.4 
" style="fill: none; stroke: #000000; stroke-width: 0.8; stroke-linejoin: miter; stroke-linecap: square"/>
   </g>
  </g>
  <g id="axes_2">
   <g id="patch_7">
    <path d="M 90 640.8 
L 648 640.8 
L 648 304.8 
L 90 304.8 
z
" style="fill: #ffffff"/>
   </g>
   <g id="PathCollection_1">
    <defs>
     <path id="m7de4faff14" d="M 0 3.535534 
C 0.937635 3.535534 1.836992 3.163008 2.5 2.5 
C 3.163008 1.836992 3.535534 0.937635 3.535534 0 
C 3.535534 -0.937635 3.163008 -1.836992 2.5 -2.5 
C 1.836992 -3.163008 0.937635 -3.535534 0 -3.535534 
C -0.937635 -3.535534 -1.836992 -3.163008 -2.5 -2.5 
C -3.163008 -1.836992 -3.535534 -0.937635 -3.535534 0 
C -3.535534 0.937635 -3.163008 1.836992 -2.5 2.5 
C -1.836992 3.163008 -0.937635 3.535534 0 3.535534 
z
" style="stroke: #000000"/>
    </defs>
    <g clip-path="url(#p0a2000e942)">
     <use xlink:href="#m7de4faff14" x="90" y="304.8" style="fill: #ffffff; stroke: #000000"/>
     <use xlink:href="#m7de4faff14" x="95.677656" y="314.08" style="fill: #ffffff; stroke: #000000"/>
     <use xlink:href="#m7de4faff14" x="97.948718" y="317.546667" style="fill: #ffffff; stroke: #000000"/>
     <use xlink:href="#m7de4faff14" x="102.490842" y="321.973333" style="fill: #ffffff; stroke: #000000"/>
     <use xlink:href="#m7de4faff14" x="105.897436" y="327.04" style="fill: #ffffff; stroke: #000000"/>
     <use xlink:href="#m7de4faff14" x="113.846154" y="338.986667" style="fill: #ffffff; stroke: #000000"/>
     <use xlink:href="#m7de4faff14" x="121.794872" y="343.466667" style="fill: #ffffff; stroke: #000000"/>
     <use xlink:href="#m7de4faff14" x="129.74359" y="346.826667" style="fill: #ffffff; stroke: #000000"/>
     <use xlink:href="#m7de4faff14" x="137.692308" y="354.56" style="fill: #ffffff; stroke: #000000"/>
     <use xlink:href="#m7de4faff14" x="144.505495" y="359.466667" style="fill: #ffffff; stroke: #000000"/>
     <use xlink:href="#m7de4faff14" x="150.18315" y="362.4" style="fill: #ffffff; stroke: #000000"/>
     <use xlink:href="#m7de4faff14" x="151.318681" y="363.04" style="fill: #ffffff; stroke: #000000"/>
     <use xlink:href="#m7de4faff14" x="152.454212" y="363.68" style="fill: #ffffff; stroke: #000000"/>
     <use xlink:href="#m7de4faff14" x="153.589744" y="364.32" style="fill: #ffffff; stroke: #000000"/>
     <use xlink:href="#m7de4faff14" x="156.996337" y="367.36" style="fill: #ffffff; stroke: #000000"/>
     <use xlink:href="#m7de4faff14" x="158.131868" y="368.373333" style="fill: #ffffff; stroke: #000000"/>
     <use xlink:href="#m7de4faff14" x="159.267399" y="369.386667" style="fill: #ffffff; stroke: #000000"/>
     <use xlink:href="#m7de4faff14" x="160.40293" y="370.24" style="fill: #ffffff; stroke: #000000"/>
     <use xlink:href="#m7de4faff14" x="166.080586" y="374.24" style="fill: #ffffff; stroke: #000000"/>
     <use xlink:href="#m7de4faff14" x="167.216117" y="375.146667" style="fill: #ffffff; stroke: #000000"/>
     <use xlink:href="#m7de4faff14" x="168.351648" y="376.053333" style="fill: #ffffff; stroke: #000000"/>
     <use xlink:href="#m7de4faff14" x="169.487179" y="377.013333" style="fill: #ffffff; stroke: #000000"/>
     <use xlink:href="#m7de4faff14" x="174.029304" y="380.213333" style="fill: #ffffff; stroke: #000000"/>
     <use xlink:href="#m7de4faff14" x="175.164835" y="381.013333" style="fill: #ffffff; stroke: #000000"/>
     <use xlink:href="#m7de4faff14" x="176.300366" y="381.813333" style="fill: #ffffff; stroke: #000000"/>
     <use xlink:href="#m7de4faff14" x="177.435897" y="382.773333" style="fill: #ffffff; stroke: #000000"/>
     <use xlink:href="#m7de4faff14" x="180.842491" y="384.373333" style="fill: #ffffff; stroke: #000000"/>
     <use xlink:href="#m7de4faff14" x="181.978022" y="384.906667" style="fill: #ffffff; stroke: #000000"/>
     <use xlink:href="#m7de4faff14" x="183.113553" y="385.44" style="fill: #ffffff; stroke: #000000"/>
     <use xlink:href="#m7de4faff14" x="184.249084" y="385.973333" style="fill: #ffffff; stroke: #000000"/>
     <use xlink:href="#m7de4faff14" x="193.333333" y="391.626667" style="fill: #ffffff; stroke: #000000"/>
     <use xlink:href="#m7de4faff14" x="201.282051" y="395.466667" style="fill: #ffffff; stroke: #000000"/>
     <use xlink:href="#m7de4faff14" x="209.230769" y="399.2" style="fill: #ffffff; stroke: #000000"/>
     <use xlink:href="#m7de4faff14" x="217.179487" y="402.08" style="fill: #ffffff; stroke: #000000"/>
     <use xlink:href="#m7de4faff14" x="220.586081" y="403.466667" style="fill: #ffffff; stroke: #000000"/>
     <use xlink:href="#m7de4faff14" x="222.857143" y="404.266667" style="fill: #ffffff; stroke: #000000"/>
     <use xlink:href="#m7de4faff14" x="223.992674" y="404.693333" style="fill: #ffffff; stroke: #000000"/>
     <use xlink:href="#m7de4faff14" x="228.534799" y="413.013333" style="fill: #ffffff; stroke: #000000"/>
     <use xlink:href="#m7de4faff14" x="230.805861" y="417.066667" style="fill: #ffffff; stroke: #000000"/>
     <use xlink:href="#m7de4faff14" x="231.941392" y="419.2" style="fill: #ffffff; stroke: #000000"/>
     <use xlink:href="#m7de4faff14" x="233.076923" y="421.386667" style="fill: #ffffff; stroke: #000000"/>
     <use xlink:href="#m7de4faff14" x="236.483516" y="423.413333" style="fill: #ffffff; stroke: #000000"/>
     <use xlink:href="#m7de4faff14" x="237.619048" y="424.106667" style="fill: #ffffff; stroke: #000000"/>
     <use xlink:href="#m7de4faff14" x="238.754579" y="424.8" style="fill: #ffffff; stroke: #000000"/>
     <use xlink:href="#m7de4faff14" x="239.89011" y="425.493333" style="fill: #ffffff; stroke: #000000"/>
     <use xlink:href="#m7de4faff14" x="241.025641" y="426.133333" style="fill: #ffffff; stroke: #000000"/>
     <use xlink:href="#m7de4faff14" x="244.432234" y="428.373333" style="fill: #ffffff; stroke: #000000"/>
     <use xlink:href="#m7de4faff14" x="245.567766" y="429.12" style="fill: #ffffff; stroke: #000000"/>
     <use xlink:href="#m7de4faff14" x="246.703297" y="429.866667" style="fill: #ffffff; stroke: #000000"/>
     <use xlink:href="#m7de4faff14" x="247.838828" y="430.613333" style="fill: #ffffff; stroke: #000000"/>
     <use xlink:href="#m7de4faff14" x="248.974359" y="431.36" style="fill: #ffffff; stroke: #000000"/>
     <use xlink:href="#m7de4faff14" x="252.380952" y="433.173333" style="fill: #ffffff; stroke: #000000"/>
     <use xlink:href="#m7de4faff14" x="256.923077" y="435.733333" style="fill: #ffffff; stroke: #000000"/>
     <use xlink:href="#m7de4faff14" x="261.465201" y="437.973333" style="fill: #ffffff; stroke: #000000"/>
     <use xlink:href="#m7de4faff14" x="264.871795" y="439.626667" style="fill: #ffffff; stroke: #000000"/>
     <use xlink:href="#m7de4faff14" x="269.413919" y="442.293333" style="fill: #ffffff; stroke: #000000"/>
     <use xlink:href="#m7de4faff14" x="272.820513" y="444.053333" style="fill: #ffffff; stroke: #000000"/>
     <use xlink:href="#m7de4faff14" x="276.227106" y="445.653333" style="fill: #ffffff; stroke: #000000"/>
     <use xlink:href="#m7de4faff14" x="280.769231" y="447.733333" style="fill: #ffffff; stroke: #000000"/>
     <use xlink:href="#m7de4faff14" x="285.311355" y="449.973333" style="fill: #ffffff; stroke: #000000"/>
     <use xlink:href="#m7de4faff14" x="288.717949" y="451.733333" style="fill: #ffffff; stroke: #000000"/>
     <use xlink:href="#m7de4faff14" x="295.531136" y="456" style="fill: #ffffff; stroke: #000000"/>
     <use xlink:href="#m7de4faff14" x="308.021978" y="461.333333" style="fill: #ffffff; stroke: #000000"/>
     <use xlink:href="#m7de4faff14" x="311.428571" y="462.773333" style="fill: #ffffff; stroke: #000000"/>
     <use xlink:href="#m7de4faff14" x="315.970696" y="465.493333" style="fill: #ffffff; stroke: #000000"/>
     <use xlink:href="#m7de4faff14" x="319.377289" y="467.253333" style="fill: #ffffff; stroke: #000000"/>
     <use xlink:href="#m7de4faff14" x="327.326007" y="470.72" style="fill: #ffffff; stroke: #000000"/>
     <use xlink:href="#m7de4faff14" x="335.274725" y="473.333333" style="fill: #ffffff; stroke: #000000"/>
     <use xlink:href="#m7de4faff14" x="343.223443" y="476.693333" style="fill: #ffffff; stroke: #000000"/>
     <use xlink:href="#m7de4faff14" x="351.172161" y="478.933333" style="fill: #ffffff; stroke: #000000"/>
     <use xlink:href="#m7de4faff14" x="359.120879" y="481.653333" style="fill: #ffffff; stroke: #000000"/>
     <use xlink:href="#m7de4faff14" x="367.069597" y="484.266667" style="fill: #ffffff; stroke: #000000"/>
     <use xlink:href="#m7de4faff14" x="375.018315" y="486.773333" style="fill: #ffffff; stroke: #000000"/>
     <use xlink:href="#m7de4faff14" x="382.967033" y="489.386667" style="fill: #ffffff; stroke: #000000"/>
     <use xlink:href="#m7de4faff14" x="392.051282" y="491.946667" style="fill: #ffffff; stroke: #000000"/>
     <use xlink:href="#m7de4faff14" x="400" y="493.6" style="fill: #ffffff; stroke: #000000"/>
     <use xlink:href="#m7de4faff14" x="407.948718" y="494.666667" style="fill: #ffffff; stroke: #000000"/>
     <use xlink:href="#m7de4faff14" x="414.761905" y="495.733333" style="fill: #ffffff; stroke: #000000"/>
     <use xlink:href="#m7de4faff14" x="423.846154" y="497.28" style="fill: #ffffff; stroke: #000000"/>
     <use xlink:href="#m7de4faff14" x="430.659341" y="498.4" style="fill: #ffffff; stroke: #000000"/>
     <use xlink:href="#m7de4faff14" x="431.794872" y="498.613333" style="fill: #ffffff; stroke: #000000"/>
     <use xlink:href="#m7de4faff14" x="435.201465" y="499.893333" style="fill: #ffffff; stroke: #000000"/>
     <use xlink:href="#m7de4faff14" x="436.336996" y="500.266667" style="fill: #ffffff; stroke: #000000"/>
     <use xlink:href="#m7de4faff14" x="437.472527" y="500.64" style="fill: #ffffff; stroke: #000000"/>
     <use xlink:href="#m7de4faff14" x="438.608059" y="501.013333" style="fill: #ffffff; stroke: #000000"/>
     <use xlink:href="#m7de4faff14" x="439.74359" y="501.333333" style="fill: #ffffff; stroke: #000000"/>
     <use xlink:href="#m7de4faff14" x="443.150183" y="501.866667" style="fill: #ffffff; stroke: #000000"/>
     <use xlink:href="#m7de4faff14" x="444.285714" y="502.026667" style="fill: #ffffff; stroke: #000000"/>
     <use xlink:href="#m7de4faff14" x="445.421245" y="502.186667" style="fill: #ffffff; stroke: #000000"/>
     <use xlink:href="#m7de4faff14" x="446.556777" y="502.346667" style="fill: #ffffff; stroke: #000000"/>
     <use xlink:href="#m7de4faff14" x="461.318681" y="506.08" style="fill: #ffffff; stroke: #000000"/>
     <use xlink:href="#m7de4faff14" x="463.589744" y="506.666667" style="fill: #ffffff; stroke: #000000"/>
     <use xlink:href="#m7de4faff14" x="471.538462" y="508.426667" style="fill: #ffffff; stroke: #000000"/>
     <use xlink:href="#m7de4faff14" x="479.487179" y="510.4" style="fill: #ffffff; stroke: #000000"/>
     <use xlink:href="#m7de4faff14" x="487.435897" y="511.946667" style="fill: #ffffff; stroke: #000000"/>
     <use xlink:href="#m7de4faff14" x="495.384615" y="513.386667" style="fill: #ffffff; stroke: #000000"/>
     <use xlink:href="#m7de4faff14" x="503.333333" y="514.986667" style="fill: #ffffff; stroke: #000000"/>
     <use xlink:href="#m7de4faff14" x="511.282051" y="516.586667" style="fill: #ffffff; stroke: #000000"/>
     <use xlink:href="#m7de4faff14" x="518.095238" y="517.866667" style="fill: #ffffff; stroke: #000000"/>
     <use xlink:href="#m7de4faff14" x="527.179487" y="518.88" style="fill: #ffffff; stroke: #000000"/>
     <use xlink:href="#m7de4faff14" x="530.586081" y="519.36" style="fill: #ffffff; stroke: #000000"/>
     <use xlink:href="#m7de4faff14" x="531.721612" y="519.52" style="fill: #ffffff; stroke: #000000"/>
     <use xlink:href="#m7de4faff14" x="532.857143" y="519.68" style="fill: #ffffff; stroke: #000000"/>
     <use xlink:href="#m7de4faff14" x="533.992674" y="519.84" style="fill: #ffffff; stroke: #000000"/>
     <use xlink:href="#m7de4faff14" x="535.128205" y="520" style="fill: #ffffff; stroke: #000000"/>
     <use xlink:href="#m7de4faff14" x="538.534799" y="520.48" style="fill: #ffffff; stroke: #000000"/>
     <use xlink:href="#m7de4faff14" x="540.805861" y="520.8" style="fill: #ffffff; stroke: #000000"/>
     <use xlink:href="#m7de4faff14" x="541.941392" y="520.96" style="fill: #ffffff; stroke: #000000"/>
     <use xlink:href="#m7de4faff14" x="546.483516" y="521.6" style="fill: #ffffff; stroke: #000000"/>
     <use xlink:href="#m7de4faff14" x="548.754579" y="521.92" style="fill: #ffffff; stroke: #000000"/>
     <use xlink:href="#m7de4faff14" x="549.89011" y="522.08" style="fill: #ffffff; stroke: #000000"/>
     <use xlink:href="#m7de4faff14" x="551.025641" y="522.186667" style="fill: #ffffff; stroke: #000000"/>
     <use xlink:href="#m7de4faff14" x="554.432234" y="522.506667" style="fill: #ffffff; stroke: #000000"/>
     <use xlink:href="#m7de4faff14" x="556.703297" y="522.72" style="fill: #ffffff; stroke: #000000"/>
     <use xlink:href="#m7de4faff14" x="565.787546" y="523.573333" style="fill: #ffffff; stroke: #000000"/>
     <use xlink:href="#m7de4faff14" x="566.923077" y="523.733333" style="fill: #ffffff; stroke: #000000"/>
     <use xlink:href="#m7de4faff14" x="572.600733" y="524.266667" style="fill: #ffffff; stroke: #000000"/>
     <use xlink:href="#m7de4faff14" x="573.736264" y="524.373333" style="fill: #ffffff; stroke: #000000"/>
     <use xlink:href="#m7de4faff14" x="582.820513" y="525.226667" style="fill: #ffffff; stroke: #000000"/>
     <use xlink:href="#m7de4faff14" x="589.6337" y="525.866667" style="fill: #ffffff; stroke: #000000"/>
     <use xlink:href="#m7de4faff14" x="597.582418" y="526.613333" style="fill: #ffffff; stroke: #000000"/>
     <use xlink:href="#m7de4faff14" x="606.666667" y="527.466667" style="fill: #ffffff; stroke: #000000"/>
     <use xlink:href="#m7de4faff14" x="613.479853" y="528.106667" style="fill: #ffffff; stroke: #000000"/>
     <use xlink:href="#m7de4faff14" x="621.428571" y="528.8" style="fill: #ffffff; stroke: #000000"/>
    </g>
   </g>
   <g id="matplotlib.axis_3">
    <g id="xtick_6">
     <g id="line2d_20">
      <defs>
       <path id="m3732ae8675" d="M 0 0 
L 0 3.5 
" style="stroke: #000000; stroke-width: 0.8"/>
      </defs>
      <g>
       <use xlink:href="#m3732ae8675" x="90" y="640.8" style="stroke: #000000; stroke-width: 0.8"/>
      </g>
     </g>
     <g id="text_11">
      <!-- 0 -->
      <g transform="translate(86.81875 655.398437)scale(0.1 -0.1)">
       <use xlink:href="#DejaVuSans-30"/>
      </g>
     </g>
    </g>
    <g id="xtick_7">
     <g id="line2d_21">
      <g>
       <use xlink:href="#m3732ae8675" x="203.553114" y="640.8" style="stroke: #000000; stroke-width: 0.8"/>
      </g>
     </g>
     <g id="text_12">
      <!-- 100 -->
      <g transform="translate(194.009364 655.398437)scale(0.1 -0.1)">
       <use xlink:href="#DejaVuSans-31"/>
       <use xlink:href="#DejaVuSans-30" x="63.623047"/>
       <use xlink:href="#DejaVuSans-30" x="127.246094"/>
      </g>
     </g>
    </g>
    <g id="xtick_8">
     <g id="line2d_22">
      <g>
       <use xlink:href="#m3732ae8675" x="317.106227" y="640.8" style="stroke: #000000; stroke-width: 0.8"/>
      </g>
     </g>
     <g id="text_13">
      <!-- 200 -->
      <g transform="translate(307.562477 655.398437)scale(0.1 -0.1)">
       <use xlink:href="#DejaVuSans-32"/>
       <use xlink:href="#DejaVuSans-30" x="63.623047"/>
       <use xlink:href="#DejaVuSans-30" x="127.246094"/>
      </g>
     </g>
    </g>
    <g id="xtick_9">
     <g id="line2d_23">
      <g>
       <use xlink:href="#m3732ae8675" x="430.659341" y="640.8" style="stroke: #000000; stroke-width: 0.8"/>
      </g>
     </g>
     <g id="text_14">
      <!-- 300 -->
      <g transform="translate(421.115591 655.398437)scale(0.1 -0.1)">
       <use xlink:href="#DejaVuSans-33"/>
       <use xlink:href="#DejaVuSans-30" x="63.623047"/>
       <use xlink:href="#DejaVuSans-30" x="127.246094"/>
      </g>
     </g>
    </g>
    <g id="xtick_10">
     <g id="line2d_24">
      <g>
       <use xlink:href="#m3732ae8675" x="544.212454" y="640.8" style="stroke: #000000; stroke-width: 0.8"/>
      </g>
     </g>
     <g id="text_15">
      <!-- 400 -->
      <g transform="translate(534.668704 655.398437)scale(0.1 -0.1)">
       <use xlink:href="#DejaVuSans-34"/>
       <use xlink:href="#DejaVuSans-30" x="63.623047"/>
       <use xlink:href="#DejaVuSans-30" x="127.246094"/>
      </g>
     </g>
    </g>
    <g id="text_16">
     <!-- Time (day) -->
     <g transform="translate(323.232813 674.395469)scale(0.17 -0.17)">
      <defs>
       <path id="DejaVuSans-54" d="M -19 4666 
L 3928 4666 
L 3928 4134 
L 2272 4134 
L 2272 0 
L 1638 0 
L 1638 4134 
L -19 4134 
L -19 4666 
z
" transform="scale(0.015625)"/>
       <path id="DejaVuSans-64" d="M 2906 2969 
L 2906 4863 
L 3481 4863 
L 3481 0 
L 2906 0 
L 2906 525 
Q 2725 213 2448 61 
Q 2172 -91 1784 -91 
Q 1150 -91 751 415 
Q 353 922 353 1747 
Q 353 2572 751 3078 
Q 1150 3584 1784 3584 
Q 2172 3584 2448 3432 
Q 2725 3281 2906 2969 
z
M 947 1747 
Q 947 1113 1208 752 
Q 1469 391 1925 391 
Q 2381 391 2643 752 
Q 2906 1113 2906 1747 
Q 2906 2381 2643 2742 
Q 2381 3103 1925 3103 
Q 1469 3103 1208 2742 
Q 947 2381 947 1747 
z
" transform="scale(0.015625)"/>
       <path id="DejaVuSans-79" d="M 2059 -325 
Q 1816 -950 1584 -1140 
Q 1353 -1331 966 -1331 
L 506 -1331 
L 506 -850 
L 844 -850 
Q 1081 -850 1212 -737 
Q 1344 -625 1503 -206 
L 1606 56 
L 191 3500 
L 800 3500 
L 1894 763 
L 2988 3500 
L 3597 3500 
L 2059 -325 
z
" transform="scale(0.015625)"/>
      </defs>
      <use xlink:href="#DejaVuSans-54"/>
      <use xlink:href="#DejaVuSans-69" x="57.958984"/>
      <use xlink:href="#DejaVuSans-6d" x="85.742188"/>
      <use xlink:href="#DejaVuSans-65" x="183.154297"/>
      <use xlink:href="#DejaVuSans-20" x="244.677734"/>
      <use xlink:href="#DejaVuSans-28" x="276.464844"/>
      <use xlink:href="#DejaVuSans-64" x="315.478516"/>
      <use xlink:href="#DejaVuSans-61" x="378.955078"/>
      <use xlink:href="#DejaVuSans-79" x="440.234375"/>
      <use xlink:href="#DejaVuSans-29" x="499.414062"/>
     </g>
    </g>
   </g>
   <g id="matplotlib.axis_4">
    <g id="ytick_5">
     <g id="line2d_25">
      <defs>
       <path id="mb2ed688455" d="M 0 0 
L -3.5 0 
" style="stroke: #000000; stroke-width: 0.8"/>
      </defs>
      <g>
       <use xlink:href="#mb2ed688455" x="90" y="624.8" style="stroke: #000000; stroke-width: 0.8"/>
      </g>
     </g>
     <g id="text_17">
      <!-- −600 -->
      <g transform="translate(55.532812 628.599219)scale(0.1 -0.1)">
       <defs>
        <path id="DejaVuSans-2212" d="M 678 2272 
L 4684 2272 
L 4684 1741 
L 678 1741 
L 678 2272 
z
" transform="scale(0.015625)"/>
        <path id="DejaVuSans-36" d="M 2113 2584 
Q 1688 2584 1439 2293 
Q 1191 2003 1191 1497 
Q 1191 994 1439 701 
Q 1688 409 2113 409 
Q 2538 409 2786 701 
Q 3034 994 3034 1497 
Q 3034 2003 2786 2293 
Q 2538 2584 2113 2584 
z
M 3366 4563 
L 3366 3988 
Q 3128 4100 2886 4159 
Q 2644 4219 2406 4219 
Q 1781 4219 1451 3797 
Q 1122 3375 1075 2522 
Q 1259 2794 1537 2939 
Q 1816 3084 2150 3084 
Q 2853 3084 3261 2657 
Q 3669 2231 3669 1497 
Q 3669 778 3244 343 
Q 2819 -91 2113 -91 
Q 1303 -91 875 529 
Q 447 1150 447 2328 
Q 447 3434 972 4092 
Q 1497 4750 2381 4750 
Q 2619 4750 2861 4703 
Q 3103 4656 3366 4563 
z
" transform="scale(0.015625)"/>
       </defs>
       <use xlink:href="#DejaVuSans-2212"/>
       <use xlink:href="#DejaVuSans-36" x="83.789062"/>
       <use xlink:href="#DejaVuSans-30" x="147.412109"/>
       <use xlink:href="#DejaVuSans-30" x="211.035156"/>
      </g>
     </g>
    </g>
    <g id="ytick_6">
     <g id="line2d_26">
      <g>
       <use xlink:href="#mb2ed688455" x="90" y="571.466667" style="stroke: #000000; stroke-width: 0.8"/>
      </g>
     </g>
     <g id="text_18">
      <!-- −500 -->
      <g transform="translate(55.532812 575.265885)scale(0.1 -0.1)">
       <use xlink:href="#DejaVuSans-2212"/>
       <use xlink:href="#DejaVuSans-35" x="83.789062"/>
       <use xlink:href="#DejaVuSans-30" x="147.412109"/>
       <use xlink:href="#DejaVuSans-30" x="211.035156"/>
      </g>
     </g>
    </g>
    <g id="ytick_7">
     <g id="line2d_27">
      <g>
       <use xlink:href="#mb2ed688455" x="90" y="518.133333" style="stroke: #000000; stroke-width: 0.8"/>
      </g>
     </g>
     <g id="text_19">
      <!-- −400 -->
      <g transform="translate(55.532812 521.932552)scale(0.1 -0.1)">
       <use xlink:href="#DejaVuSans-2212"/>
       <use xlink:href="#DejaVuSans-34" x="83.789062"/>
       <use xlink:href="#DejaVuSans-30" x="147.412109"/>
       <use xlink:href="#DejaVuSans-30" x="211.035156"/>
      </g>
     </g>
    </g>
    <g id="ytick_8">
     <g id="line2d_28">
      <g>
       <use xlink:href="#mb2ed688455" x="90" y="464.8" style="stroke: #000000; stroke-width: 0.8"/>
      </g>
     </g>
     <g id="text_20">
      <!-- −300 -->
      <g transform="translate(55.532812 468.599219)scale(0.1 -0.1)">
       <use xlink:href="#DejaVuSans-2212"/>
       <use xlink:href="#DejaVuSans-33" x="83.789062"/>
       <use xlink:href="#DejaVuSans-30" x="147.412109"/>
       <use xlink:href="#DejaVuSans-30" x="211.035156"/>
      </g>
     </g>
    </g>
    <g id="ytick_9">
     <g id="line2d_29">
      <g>
       <use xlink:href="#mb2ed688455" x="90" y="411.466667" style="stroke: #000000; stroke-width: 0.8"/>
      </g>
     </g>
     <g id="text_21">
      <!-- −200 -->
      <g transform="translate(55.532812 415.265885)scale(0.1 -0.1)">
       <use xlink:href="#DejaVuSans-2212"/>
       <use xlink:href="#DejaVuSans-32" x="83.789062"/>
       <use xlink:href="#DejaVuSans-30" x="147.412109"/>
       <use xlink:href="#DejaVuSans-30" x="211.035156"/>
      </g>
     </g>
    </g>
    <g id="ytick_10">
     <g id="line2d_30">
      <g>
       <use xlink:href="#mb2ed688455" x="90" y="358.133333" style="stroke: #000000; stroke-width: 0.8"/>
      </g>
     </g>
     <g id="text_22">
      <!-- −100 -->
      <g transform="translate(55.532812 361.932552)scale(0.1 -0.1)">
       <use xlink:href="#DejaVuSans-2212"/>
       <use xlink:href="#DejaVuSans-31" x="83.789062"/>
       <use xlink:href="#DejaVuSans-30" x="147.412109"/>
       <use xlink:href="#DejaVuSans-30" x="211.035156"/>
      </g>
     </g>
    </g>
    <g id="ytick_11">
     <g id="line2d_31">
      <g>
       <use xlink:href="#mb2ed688455" x="90" y="304.8" style="stroke: #000000; stroke-width: 0.8"/>
      </g>
     </g>
     <g id="text_23">
      <!-- 0 -->
      <g transform="translate(76.6375 308.599219)scale(0.1 -0.1)">
       <use xlink:href="#DejaVuSans-30"/>
      </g>
     </g>
    </g>
    <g id="text_24">
     <!-- Settlement (mm) -->
     <g transform="translate(47.997344 545.804375)rotate(-90)scale(0.17 -0.17)">
      <defs>
       <path id="DejaVuSans-6c" d="M 603 4863 
L 1178 4863 
L 1178 0 
L 603 0 
L 603 4863 
z
" transform="scale(0.015625)"/>
       <path id="DejaVuSans-6e" d="M 3513 2113 
L 3513 0 
L 2938 0 
L 2938 2094 
Q 2938 2591 2744 2837 
Q 2550 3084 2163 3084 
Q 1697 3084 1428 2787 
Q 1159 2491 1159 1978 
L 1159 0 
L 581 0 
L 581 3500 
L 1159 3500 
L 1159 2956 
Q 1366 3272 1645 3428 
Q 1925 3584 2291 3584 
Q 2894 3584 3203 3211 
Q 3513 2838 3513 2113 
z
" transform="scale(0.015625)"/>
      </defs>
      <use xlink:href="#DejaVuSans-53"/>
      <use xlink:href="#DejaVuSans-65" x="63.476562"/>
      <use xlink:href="#DejaVuSans-74" x="125"/>
      <use xlink:href="#DejaVuSans-74" x="164.208984"/>
      <use xlink:href="#DejaVuSans-6c" x="203.417969"/>
      <use xlink:href="#DejaVuSans-65" x="231.201172"/>
      <use xlink:href="#DejaVuSans-6d" x="292.724609"/>
      <use xlink:href="#DejaVuSans-65" x="390.136719"/>
      <use xlink:href="#DejaVuSans-6e" x="451.660156"/>
      <use xlink:href="#DejaVuSans-74" x="515.039062"/>
      <use xlink:href="#DejaVuSans-20" x="554.248047"/>
      <use xlink:href="#DejaVuSans-28" x="586.035156"/>
      <use xlink:href="#DejaVuSans-6d" x="625.048828"/>
      <use xlink:href="#DejaVuSans-6d" x="722.460938"/>
      <use xlink:href="#DejaVuSans-29" x="819.873047"/>
     </g>
    </g>
   </g>
   <g id="line2d_32">
    <path d="M 90 304.8 
L 95.677656 314.184983 
L 97.948718 317.523758 
L 102.490842 323.605867 
L 105.897436 327.713153 
L 113.846154 336.056808 
L 121.794872 343.014589 
L 129.74359 348.905307 
L 137.692308 353.95695 
L 144.505495 357.747172 
L 150.18315 360.587777 
L 151.318681 361.12499 
L 152.454212 361.652549 
L 153.589744 362.170711 
L 156.996337 363.671263 
L 158.131868 364.154242 
L 159.267399 364.628985 
L 160.40293 365.095701 
L 166.080586 367.315712 
L 167.216117 367.73828 
L 168.351648 368.154103 
L 169.487179 368.56334 
L 174.029304 370.137467 
L 175.164835 370.516011 
L 176.300366 370.888832 
L 177.435897 371.256059 
L 180.842491 372.325406 
L 181.978022 372.671469 
L 183.113553 373.012527 
L 184.249084 373.348689 
L 193.333333 375.873648 
L 201.282051 377.868193 
L 209.230769 379.689607 
L 217.179487 381.359496 
L 220.586081 382.033381 
L 222.857143 382.469675 
L 223.992674 382.684067 
L 228.534799 383.517584 
L 230.805861 383.920473 
L 231.941392 384.118584 
L 233.076923 384.314521 
L 236.483516 384.889643 
L 237.619048 385.077234 
L 238.754579 385.262822 
L 239.89011 385.446438 
L 241.025641 385.628115 
L 244.432234 386.161806 
L 245.567766 386.336021 
L 246.703297 386.508443 
L 247.838828 386.6791 
L 248.974359 386.848017 
L 252.380952 387.344598 
L 256.923077 387.983907 
L 261.465201 388.598543 
L 264.871795 389.044174 
L 269.413919 389.61894 
L 272.820513 390.036128 
L 276.227106 390.441952 
L 280.769231 390.966163 
L 285.311355 391.472004 
L 288.717949 391.839903 
L 295.531136 392.547792 
L 308.021978 393.75673 
L 311.428571 394.068072 
L 315.970696 394.471811 
L 319.377289 394.766408 
L 327.326007 395.427891 
L 335.274725 396.055364 
L 343.223443 396.651382 
L 351.172161 397.218254 
L 359.120879 397.758067 
L 367.069597 398.272712 
L 375.018315 398.76391 
L 382.967033 399.233227 
L 392.051282 399.744627 
L 400 400.171717 
L 407.948718 400.581027 
L 414.761905 400.91854 
L 423.846154 401.350571 
L 430.659341 401.661862 
L 431.794872 401.712727 
L 435.201465 401.863629 
L 436.336996 401.913373 
L 437.472527 401.962842 
L 438.608059 402.012039 
L 439.74359 402.060965 
L 443.150183 402.206147 
L 444.285714 402.254015 
L 445.421245 402.301624 
L 446.556777 402.348976 
L 461.318681 402.942065 
L 463.589744 403.029757 
L 471.538462 403.329638 
L 479.487179 403.619005 
L 487.435897 403.8984 
L 495.384615 404.168331 
L 503.333333 404.429271 
L 511.282051 404.68166 
L 518.095238 404.891504 
L 527.179487 405.162418 
L 530.586081 405.261496 
L 531.721612 405.294225 
L 532.857143 405.326808 
L 533.992674 405.359244 
L 535.128205 405.391537 
L 538.534799 405.487554 
L 540.805861 405.55086 
L 541.941392 405.582304 
L 546.483516 405.706707 
L 548.754579 405.768098 
L 549.89011 405.798594 
L 551.025641 405.828957 
L 554.432234 405.919266 
L 556.703297 405.978827 
L 565.787546 406.21206 
L 566.923077 406.240663 
L 572.600733 406.381896 
L 573.736264 406.409791 
L 582.820513 406.628857 
L 589.6337 406.788521 
L 597.582418 406.969984 
L 606.666667 407.171286 
L 613.479853 407.318177 
L 621.428571 407.4853 
" clip-path="url(#p0a2000e942)" style="fill: none; stroke-dasharray: 5.55,2.4; stroke-dashoffset: 0; stroke: #ff0000; stroke-width: 1.5"/>
   </g>
   <g id="line2d_33">
    <path d="M 150.18315 362.4 
L 151.318681 363.527568 
L 152.454212 364.631841 
L 153.589744 365.713543 
L 156.996337 368.830036 
L 158.131868 369.828129 
L 159.267399 370.806855 
L 160.40293 371.766779 
L 166.080586 376.302702 
L 167.216117 377.160537 
L 168.351648 378.002969 
L 169.487179 378.830414 
L 174.029304 381.998133 
L 175.164835 382.756381 
L 176.300366 383.501845 
L 177.435897 384.234849 
L 180.842491 386.362181 
L 181.978022 387.048373 
L 183.113553 387.72357 
L 184.249084 388.388035 
L 193.333333 393.346554 
L 201.282051 397.223923 
L 209.230769 400.735128 
L 217.179487 403.930013 
L 220.586081 405.212872 
L 222.857143 406.041484 
L 223.992674 406.4481 
L 228.534799 408.025478 
L 230.805861 408.785951 
L 231.941392 409.159428 
L 233.076923 409.528506 
L 236.483516 410.610107 
L 237.619048 410.962344 
L 238.754579 411.310552 
L 239.89011 411.654801 
L 241.025641 411.995157 
L 244.432234 412.993523 
L 245.567766 413.318954 
L 246.703297 413.640808 
L 247.838828 413.959144 
L 248.974359 414.27402 
L 252.380952 415.198441 
L 256.923077 416.38584 
L 261.465201 417.524547 
L 264.871795 418.348405 
L 269.413919 419.408848 
L 272.820513 420.177052 
L 276.227106 420.923123 
L 280.769231 421.885082 
L 285.311355 422.811467 
L 288.717949 423.484085 
L 295.531136 424.775608 
L 308.021978 426.973174 
L 311.428571 427.537479 
L 315.970696 428.268263 
L 319.377289 428.800793 
L 327.326007 429.994373 
L 335.274725 431.12385 
L 343.223443 432.194264 
L 351.172161 433.210138 
L 359.120879 434.175547 
L 367.069597 435.094165 
L 375.018315 435.969319 
L 382.967033 436.804029 
L 392.051282 437.711969 
L 400 438.468943 
L 407.948718 439.193313 
L 414.761905 439.789822 
L 423.846154 440.55233 
L 430.659341 441.101014 
L 431.794872 441.190611 
L 435.201465 441.456326 
L 436.336996 441.543886 
L 437.472527 441.630947 
L 438.608059 441.717513 
L 439.74359 441.80359 
L 443.150183 442.058919 
L 444.285714 442.143076 
L 445.421245 442.226763 
L 446.556777 442.309984 
L 461.318681 443.351163 
L 463.589744 443.504925 
L 471.538462 444.030385 
L 479.487179 444.536899 
L 487.435897 445.025475 
L 495.384615 445.497049 
L 503.333333 445.952495 
L 511.282051 446.392627 
L 518.095238 446.758271 
L 527.179487 447.229939 
L 530.586081 447.402325 
L 531.721612 447.459258 
L 532.857143 447.51593 
L 533.992674 447.572341 
L 535.128205 447.628495 
L 538.534799 447.795427 
L 540.805861 447.905457 
L 541.941392 447.9601 
L 546.483516 448.176229 
L 548.754579 448.282851 
L 549.89011 448.335807 
L 551.025641 448.388528 
L 554.432234 448.5453 
L 556.703297 448.64867 
L 565.787546 449.053247 
L 566.923077 449.102842 
L 572.600733 449.347651 
L 573.736264 449.39599 
L 582.820513 449.775443 
L 589.6337 450.051826 
L 597.582418 450.365763 
L 606.666667 450.713796 
L 613.479853 450.967607 
L 621.428571 451.256224 
" clip-path="url(#p0a2000e942)" style="fill: none; stroke-dasharray: 5.55,2.4; stroke-dashoffset: 0; stroke: #0000ff; stroke-width: 1.5"/>
   </g>
   <g id="line2d_34">
    <path d="M 230.805861 417.066667 
L 231.941392 418.474725 
L 233.076923 419.851928 
L 236.483516 423.808953 
L 237.619048 425.073032 
L 238.754579 426.311168 
L 239.89011 427.524208 
L 241.025641 428.712966 
L 244.432234 432.141128 
L 245.567766 433.240178 
L 246.703297 434.318501 
L 247.838828 435.376719 
L 248.974359 436.415429 
L 252.380952 439.42013 
L 256.923077 443.185541 
L 261.465201 446.702443 
L 264.871795 449.192397 
L 269.413919 452.333215 
L 272.820513 454.565228 
L 276.227106 456.699534 
L 280.769231 459.404693 
L 285.311355 461.962009 
L 288.717949 463.790519 
L 295.531136 467.237641 
L 308.021978 472.921289 
L 311.428571 474.345929 
L 315.970696 476.170724 
L 319.377289 477.486519 
L 327.326007 480.394351 
L 335.274725 483.095408 
L 343.223443 485.611831 
L 351.172161 487.962614 
L 359.120879 490.164162 
L 367.069597 492.230721 
L 375.018315 494.174732 
L 382.967033 496.007114 
L 392.051282 497.976873 
L 400 499.601059 
L 407.948718 501.140359 
L 414.761905 502.397258 
L 423.846154 503.990222 
L 430.659341 505.127173 
L 431.794872 505.312105 
L 435.201465 505.859357 
L 436.336996 506.039304 
L 437.472527 506.218036 
L 438.608059 506.395566 
L 439.74359 506.571907 
L 443.150183 507.093915 
L 444.285714 507.265619 
L 445.421245 507.436192 
L 446.556777 507.605647 
L 461.318681 509.71166 
L 463.589744 510.020504 
L 471.538462 511.071803 
L 479.487179 512.079219 
L 487.435897 513.045493 
L 495.384615 513.973137 
L 503.333333 514.86446 
L 511.282051 515.72159 
L 518.095238 516.430547 
L 527.179487 517.340961 
L 530.586081 517.672557 
L 531.721612 517.781938 
L 532.857143 517.890751 
L 533.992674 517.999 
L 535.128205 518.106691 
L 538.534799 518.42645 
L 540.805861 518.636907 
L 541.941392 518.741333 
L 546.483516 519.153784 
L 548.754579 519.356913 
L 549.89011 519.457718 
L 551.025641 519.55802 
L 554.432234 519.855955 
L 556.703297 520.052138 
L 565.787546 520.817968 
L 566.923077 520.911627 
L 572.600733 521.373255 
L 573.736264 521.46427 
L 582.820513 522.177174 
L 589.6337 522.694719 
L 597.582418 523.280849 
L 606.666667 523.928501 
L 613.479853 524.399412 
L 621.428571 524.933478 
" clip-path="url(#p0a2000e942)" style="fill: none; stroke-dasharray: 5.55,2.4; stroke-dashoffset: 0; stroke: #008000; stroke-width: 1.5"/>
   </g>
   <g id="line2d_35">
    <path d="M 435.201465 499.893333 
L 436.336996 500.085279 
L 437.472527 500.276096 
L 438.608059 500.465796 
L 439.74359 500.654394 
L 443.150183 501.213703 
L 444.285714 501.39802 
L 445.421245 501.581299 
L 446.556777 501.763551 
L 461.318681 504.044831 
L 463.589744 504.382196 
L 471.538462 505.536878 
L 479.487179 506.653567 
L 487.435897 507.735524 
L 495.384615 508.785842 
L 503.333333 509.807484 
L 511.282051 510.803314 
L 518.095238 511.638459 
L 527.179487 512.728689 
L 530.586081 513.131412 
L 531.721612 513.264977 
L 532.857143 513.398218 
L 533.992674 513.531142 
L 535.128205 513.663758 
L 538.534799 514.059838 
L 540.805861 514.322503 
L 541.941392 514.453444 
L 546.483516 514.974795 
L 548.754579 515.234143 
L 549.89011 515.363516 
L 551.025641 515.4927 
L 554.432234 515.879209 
L 556.703297 516.136103 
L 565.787546 517.159088 
L 566.923077 517.286607 
L 572.600733 517.92374 
L 573.736264 518.051151 
L 582.820513 519.072163 
L 589.6337 519.84255 
L 597.582418 520.75073 
L 606.666667 521.807743 
L 613.479853 522.619344 
L 621.428571 523.5937 
" clip-path="url(#p0a2000e942)" style="fill: none; stroke-dasharray: 5.55,2.4; stroke-dashoffset: 0; stroke: #ffa500; stroke-width: 1.5"/>
   </g>
   <g id="patch_8">
    <path d="M 90 640.8 
L 90 304.8 
" style="fill: none; stroke: #000000; stroke-width: 0.8; stroke-linejoin: miter; stroke-linecap: square"/>
   </g>
   <g id="patch_9">
    <path d="M 648 640.8 
L 648 304.8 
" style="fill: none; stroke: #000000; stroke-width: 0.8; stroke-linejoin: miter; stroke-linecap: square"/>
   </g>
   <g id="patch_10">
    <path d="M 90 640.8 
L 648 640.8 
" style="fill: none; stroke: #000000; stroke-width: 0.8; stroke-linejoin: miter; stroke-linecap: square"/>
   </g>
   <g id="patch_11">
    <path d="M 90 304.8 
L 648 304.8 
" style="fill: none; stroke: #000000; stroke-width: 0.8; stroke-linejoin: miter; stroke-linecap: square"/>
   </g>
   <g id="legend_1">
    <g id="patch_12">
     <path d="M 262.96125 367.90875 
L 639.6 367.90875 
Q 642 367.90875 642 365.50875 
L 642 313.2 
Q 642 310.8 639.6 310.8 
L 262.96125 310.8 
Q 260.56125 310.8 260.56125 313.2 
L 260.56125 365.50875 
Q 260.56125 367.90875 262.96125 367.90875 
z
" style="fill: #ffffff; opacity: 0.8; stroke: #cccccc; stroke-linejoin: miter"/>
    </g>
    <g id="PathCollection_2">
     <g>
      <use xlink:href="#m7de4faff14" x="277.36125" y="321.568125" style="fill: #ffffff; stroke: #000000"/>
     </g>
    </g>
    <g id="text_25">
     <!-- measured data -->
     <g transform="translate(298.96125 324.718125)scale(0.12 -0.12)">
      <defs>
       <path id="DejaVuSans-73" d="M 2834 3397 
L 2834 2853 
Q 2591 2978 2328 3040 
Q 2066 3103 1784 3103 
Q 1356 3103 1142 2972 
Q 928 2841 928 2578 
Q 928 2378 1081 2264 
Q 1234 2150 1697 2047 
L 1894 2003 
Q 2506 1872 2764 1633 
Q 3022 1394 3022 966 
Q 3022 478 2636 193 
Q 2250 -91 1575 -91 
Q 1294 -91 989 -36 
Q 684 19 347 128 
L 347 722 
Q 666 556 975 473 
Q 1284 391 1588 391 
Q 1994 391 2212 530 
Q 2431 669 2431 922 
Q 2431 1156 2273 1281 
Q 2116 1406 1581 1522 
L 1381 1569 
Q 847 1681 609 1914 
Q 372 2147 372 2553 
Q 372 3047 722 3315 
Q 1072 3584 1716 3584 
Q 2034 3584 2315 3537 
Q 2597 3491 2834 3397 
z
" transform="scale(0.015625)"/>
      </defs>
      <use xlink:href="#DejaVuSans-6d"/>
      <use xlink:href="#DejaVuSans-65" x="97.412109"/>
      <use xlink:href="#DejaVuSans-61" x="158.935547"/>
      <use xlink:href="#DejaVuSans-73" x="220.214844"/>
      <use xlink:href="#DejaVuSans-75" x="272.314453"/>
      <use xlink:href="#DejaVuSans-72" x="335.693359"/>
      <use xlink:href="#DejaVuSans-65" x="374.556641"/>
      <use xlink:href="#DejaVuSans-64" x="436.080078"/>
      <use xlink:href="#DejaVuSans-20" x="499.556641"/>
      <use xlink:href="#DejaVuSans-64" x="531.34375"/>
      <use xlink:href="#DejaVuSans-61" x="594.820312"/>
      <use xlink:href="#DejaVuSans-74" x="656.099609"/>
      <use xlink:href="#DejaVuSans-61" x="695.308594"/>
     </g>
    </g>
    <g id="line2d_36">
     <path d="M 265.36125 338.131875 
L 277.36125 338.131875 
L 289.36125 338.131875 
" style="fill: none; stroke-dasharray: 5.55,2.4; stroke-dashoffset: 0; stroke: #ff0000; stroke-width: 1.5"/>
    </g>
    <g id="text_26">
     <!-- Predicted Curve_Step 1 -->
     <g transform="translate(298.96125 342.331875)scale(0.12 -0.12)">
      <defs>
       <path id="DejaVuSans-50" d="M 1259 4147 
L 1259 2394 
L 2053 2394 
Q 2494 2394 2734 2622 
Q 2975 2850 2975 3272 
Q 2975 3691 2734 3919 
Q 2494 4147 2053 4147 
L 1259 4147 
z
M 628 4666 
L 2053 4666 
Q 2838 4666 3239 4311 
Q 3641 3956 3641 3272 
Q 3641 2581 3239 2228 
Q 2838 1875 2053 1875 
L 1259 1875 
L 1259 0 
L 628 0 
L 628 4666 
z
" transform="scale(0.015625)"/>
       <path id="DejaVuSans-43" d="M 4122 4306 
L 4122 3641 
Q 3803 3938 3442 4084 
Q 3081 4231 2675 4231 
Q 1875 4231 1450 3742 
Q 1025 3253 1025 2328 
Q 1025 1406 1450 917 
Q 1875 428 2675 428 
Q 3081 428 3442 575 
Q 3803 722 4122 1019 
L 4122 359 
Q 3791 134 3420 21 
Q 3050 -91 2638 -91 
Q 1578 -91 968 557 
Q 359 1206 359 2328 
Q 359 3453 968 4101 
Q 1578 4750 2638 4750 
Q 3056 4750 3426 4639 
Q 3797 4528 4122 4306 
z
" transform="scale(0.015625)"/>
       <path id="DejaVuSans-76" d="M 191 3500 
L 800 3500 
L 1894 563 
L 2988 3500 
L 3597 3500 
L 2284 0 
L 1503 0 
L 191 3500 
z
" transform="scale(0.015625)"/>
       <path id="DejaVuSans-5f" d="M 3263 -1063 
L 3263 -1509 
L -63 -1509 
L -63 -1063 
L 3263 -1063 
z
" transform="scale(0.015625)"/>
       <path id="DejaVuSans-70" d="M 1159 525 
L 1159 -1331 
L 581 -1331 
L 581 3500 
L 1159 3500 
L 1159 2969 
Q 1341 3281 1617 3432 
Q 1894 3584 2278 3584 
Q 2916 3584 3314 3078 
Q 3713 2572 3713 1747 
Q 3713 922 3314 415 
Q 2916 -91 2278 -91 
Q 1894 -91 1617 61 
Q 1341 213 1159 525 
z
M 3116 1747 
Q 3116 2381 2855 2742 
Q 2594 3103 2138 3103 
Q 1681 3103 1420 2742 
Q 1159 2381 1159 1747 
Q 1159 1113 1420 752 
Q 1681 391 2138 391 
Q 2594 391 2855 752 
Q 3116 1113 3116 1747 
z
" transform="scale(0.015625)"/>
      </defs>
      <use xlink:href="#DejaVuSans-50"/>
      <use xlink:href="#DejaVuSans-72" x="58.552734"/>
      <use xlink:href="#DejaVuSans-65" x="97.416016"/>
      <use xlink:href="#DejaVuSans-64" x="158.939453"/>
      <use xlink:href="#DejaVuSans-69" x="222.416016"/>
      <use xlink:href="#DejaVuSans-63" x="250.199219"/>
      <use xlink:href="#DejaVuSans-74" x="305.179688"/>
      <use xlink:href="#DejaVuSans-65" x="344.388672"/>
      <use xlink:href="#DejaVuSans-64" x="405.912109"/>
      <use xlink:href="#DejaVuSans-20" x="469.388672"/>
      <use xlink:href="#DejaVuSans-43" x="501.175781"/>
      <use xlink:href="#DejaVuSans-75" x="571"/>
      <use xlink:href="#DejaVuSans-72" x="634.378906"/>
      <use xlink:href="#DejaVuSans-76" x="675.492188"/>
      <use xlink:href="#DejaVuSans-65" x="734.671875"/>
      <use xlink:href="#DejaVuSans-5f" x="796.195312"/>
      <use xlink:href="#DejaVuSans-53" x="846.195312"/>
      <use xlink:href="#DejaVuSans-74" x="909.671875"/>
      <use xlink:href="#DejaVuSans-65" x="948.880859"/>
      <use xlink:href="#DejaVuSans-70" x="1010.404297"/>
      <use xlink:href="#DejaVuSans-20" x="1073.880859"/>
      <use xlink:href="#DejaVuSans-31" x="1105.667969"/>
     </g>
    </g>
    <g id="line2d_37">
     <path d="M 265.36125 356.079375 
L 277.36125 356.079375 
L 289.36125 356.079375 
" style="fill: none; stroke-dasharray: 5.55,2.4; stroke-dashoffset: 0; stroke: #0000ff; stroke-width: 1.5"/>
    </g>
    <g id="text_27">
     <!-- Predicted Curve_Step 2 -->
     <g transform="translate(298.96125 360.279375)scale(0.12 -0.12)">
      <use xlink:href="#DejaVuSans-50"/>
      <use xlink:href="#DejaVuSans-72" x="58.552734"/>
      <use xlink:href="#DejaVuSans-65" x="97.416016"/>
      <use xlink:href="#DejaVuSans-64" x="158.939453"/>
      <use xlink:href="#DejaVuSans-69" x="222.416016"/>
      <use xlink:href="#DejaVuSans-63" x="250.199219"/>
      <use xlink:href="#DejaVuSans-74" x="305.179688"/>
      <use xlink:href="#DejaVuSans-65" x="344.388672"/>
      <use xlink:href="#DejaVuSans-64" x="405.912109"/>
      <use xlink:href="#DejaVuSans-20" x="469.388672"/>
      <use xlink:href="#DejaVuSans-43" x="501.175781"/>
      <use xlink:href="#DejaVuSans-75" x="571"/>
      <use xlink:href="#DejaVuSans-72" x="634.378906"/>
      <use xlink:href="#DejaVuSans-76" x="675.492188"/>
      <use xlink:href="#DejaVuSans-65" x="734.671875"/>
      <use xlink:href="#DejaVuSans-5f" x="796.195312"/>
      <use xlink:href="#DejaVuSans-53" x="846.195312"/>
      <use xlink:href="#DejaVuSans-74" x="909.671875"/>
      <use xlink:href="#DejaVuSans-65" x="948.880859"/>
      <use xlink:href="#DejaVuSans-70" x="1010.404297"/>
      <use xlink:href="#DejaVuSans-20" x="1073.880859"/>
      <use xlink:href="#DejaVuSans-32" x="1105.667969"/>
     </g>
    </g>
    <g id="line2d_38">
     <path d="M 463.280625 320.518125 
L 475.280625 320.518125 
L 487.280625 320.518125 
" style="fill: none; stroke-dasharray: 5.55,2.4; stroke-dashoffset: 0; stroke: #008000; stroke-width: 1.5"/>
    </g>
    <g id="text_28">
     <!-- Predicted Curve_Step 3 -->
     <g transform="translate(496.880625 324.718125)scale(0.12 -0.12)">
      <use xlink:href="#DejaVuSans-50"/>
      <use xlink:href="#DejaVuSans-72" x="58.552734"/>
      <use xlink:href="#DejaVuSans-65" x="97.416016"/>
      <use xlink:href="#DejaVuSans-64" x="158.939453"/>
      <use xlink:href="#DejaVuSans-69" x="222.416016"/>
      <use xlink:href="#DejaVuSans-63" x="250.199219"/>
      <use xlink:href="#DejaVuSans-74" x="305.179688"/>
      <use xlink:href="#DejaVuSans-65" x="344.388672"/>
      <use xlink:href="#DejaVuSans-64" x="405.912109"/>
      <use xlink:href="#DejaVuSans-20" x="469.388672"/>
      <use xlink:href="#DejaVuSans-43" x="501.175781"/>
      <use xlink:href="#DejaVuSans-75" x="571"/>
      <use xlink:href="#DejaVuSans-72" x="634.378906"/>
      <use xlink:href="#DejaVuSans-76" x="675.492188"/>
      <use xlink:href="#DejaVuSans-65" x="734.671875"/>
      <use xlink:href="#DejaVuSans-5f" x="796.195312"/>
      <use xlink:href="#DejaVuSans-53" x="846.195312"/>
      <use xlink:href="#DejaVuSans-74" x="909.671875"/>
      <use xlink:href="#DejaVuSans-65" x="948.880859"/>
      <use xlink:href="#DejaVuSans-70" x="1010.404297"/>
      <use xlink:href="#DejaVuSans-20" x="1073.880859"/>
      <use xlink:href="#DejaVuSans-33" x="1105.667969"/>
     </g>
    </g>
    <g id="line2d_39">
     <path d="M 463.280625 338.465625 
L 475.280625 338.465625 
L 487.280625 338.465625 
" style="fill: none; stroke-dasharray: 5.55,2.4; stroke-dashoffset: 0; stroke: #ffa500; stroke-width: 1.5"/>
    </g>
    <g id="text_29">
     <!-- Predicted Curve_Step 4 -->
     <g transform="translate(496.880625 342.665625)scale(0.12 -0.12)">
      <use xlink:href="#DejaVuSans-50"/>
      <use xlink:href="#DejaVuSans-72" x="58.552734"/>
      <use xlink:href="#DejaVuSans-65" x="97.416016"/>
      <use xlink:href="#DejaVuSans-64" x="158.939453"/>
      <use xlink:href="#DejaVuSans-69" x="222.416016"/>
      <use xlink:href="#DejaVuSans-63" x="250.199219"/>
      <use xlink:href="#DejaVuSans-74" x="305.179688"/>
      <use xlink:href="#DejaVuSans-65" x="344.388672"/>
      <use xlink:href="#DejaVuSans-64" x="405.912109"/>
      <use xlink:href="#DejaVuSans-20" x="469.388672"/>
      <use xlink:href="#DejaVuSans-43" x="501.175781"/>
      <use xlink:href="#DejaVuSans-75" x="571"/>
      <use xlink:href="#DejaVuSans-72" x="634.378906"/>
      <use xlink:href="#DejaVuSans-76" x="675.492188"/>
      <use xlink:href="#DejaVuSans-65" x="734.671875"/>
      <use xlink:href="#DejaVuSans-5f" x="796.195312"/>
      <use xlink:href="#DejaVuSans-53" x="846.195312"/>
      <use xlink:href="#DejaVuSans-74" x="909.671875"/>
      <use xlink:href="#DejaVuSans-65" x="948.880859"/>
      <use xlink:href="#DejaVuSans-70" x="1010.404297"/>
      <use xlink:href="#DejaVuSans-20" x="1073.880859"/>
      <use xlink:href="#DejaVuSans-34" x="1105.667969"/>
     </g>
    </g>
   </g>
  </g>
 </g>
 <defs>
  <clipPath id="pe3ec73b60f">
   <rect x="90" y="86.4" width="558" height="168"/>
  </clipPath>
  <clipPath id="p0a2000e942">
   <rect x="90" y="304.8" width="558" height="336"/>
  </clipPath>
 </defs>
</svg>
